<svg id="soleil" xmlns="http://www.w3.org/2000/svg" width="31.387" height="31.387" viewBox="0 0 31.387 31.387">
  <g id="Group_2045" data-name="Group 2045">
    <path id="Path_4867" data-name="Path 4867" d="M19.13,11.269a7.862,7.862,0,1,0,7.861,7.862A7.871,7.871,0,0,0,19.13,11.269Z" transform="translate(-3.437 -3.437)" fill="#aeaeae"/>
    <g id="Group_2044" data-name="Group 2044">
      <g id="Group_2036" data-name="Group 2036" transform="translate(14.159)">
        <path id="Path_4868" data-name="Path 4868" d="M21.907,5.521a1.534,1.534,0,0,1-1.534-1.533V1.534a1.534,1.534,0,1,1,3.068,0V3.988A1.534,1.534,0,0,1,21.907,5.521Z" transform="translate(-20.373 0)" fill="#aeaeae"/>
      </g>
      <g id="Group_2037" data-name="Group 2037" transform="translate(14.159 25.865)">
        <path id="Path_4869" data-name="Path 4869" d="M21.907,37.215a1.534,1.534,0,0,0-1.534,1.534V41.2a1.534,1.534,0,1,0,3.068,0V38.749A1.534,1.534,0,0,0,21.907,37.215Z" transform="translate(-20.373 -37.215)" fill="#aeaeae"/>
      </g>
      <g id="Group_2038" data-name="Group 2038" transform="translate(22.437 4.147)">
        <path id="Path_4870" data-name="Path 4870" d="M32.731,10.321a1.535,1.535,0,0,1,0-2.169l1.735-1.735a1.534,1.534,0,0,1,2.169,2.169L34.9,10.321A1.534,1.534,0,0,1,32.731,10.321Z" transform="translate(-32.282 -5.967)" fill="#aeaeae"/>
      </g>
      <g id="Group_2039" data-name="Group 2039" transform="translate(4.147 22.437)">
        <path id="Path_4871" data-name="Path 4871" d="M10.321,32.733a1.532,1.532,0,0,0-2.169,0L6.416,34.467a1.534,1.534,0,0,0,2.169,2.169L10.321,34.9A1.532,1.532,0,0,0,10.321,32.733Z" transform="translate(-5.967 -32.283)" fill="#aeaeae"/>
      </g>
      <g id="Group_2040" data-name="Group 2040" transform="translate(25.865 14.159)">
        <path id="Path_4872" data-name="Path 4872" d="M37.215,21.907a1.534,1.534,0,0,1,1.534-1.534H41.2a1.534,1.534,0,1,1,0,3.067H38.749A1.533,1.533,0,0,1,37.215,21.907Z" transform="translate(-37.215 -20.373)" fill="#aeaeae"/>
      </g>
      <g id="Group_2041" data-name="Group 2041" transform="translate(0 14.159)">
        <path id="Path_4873" data-name="Path 4873" d="M5.521,21.907a1.534,1.534,0,0,0-1.534-1.534H1.534a1.534,1.534,0,1,0,0,3.067H3.988A1.533,1.533,0,0,0,5.521,21.907Z" transform="translate(0 -20.373)" fill="#aeaeae"/>
      </g>
      <g id="Group_2042" data-name="Group 2042" transform="translate(22.436 22.438)">
        <path id="Path_4874" data-name="Path 4874" d="M32.731,32.733a1.535,1.535,0,0,1,2.169,0l1.735,1.735a1.534,1.534,0,0,1-2.169,2.168L32.731,34.9A1.533,1.533,0,0,1,32.731,32.733Z" transform="translate(-32.282 -32.284)" fill="#aeaeae"/>
      </g>
      <g id="Group_2043" data-name="Group 2043" transform="translate(4.147 4.147)">
        <path id="Path_4875" data-name="Path 4875" d="M10.32,10.321a1.534,1.534,0,0,0,0-2.169L8.585,6.417A1.534,1.534,0,0,0,6.416,8.585l1.735,1.735A1.532,1.532,0,0,0,10.32,10.321Z" transform="translate(-5.966 -5.968)" fill="#aeaeae"/>
      </g>
    </g>
  </g>
</svg>
